<svg viewBox="0 0 512.00005 512" xmlns="http://www.w3.org/2000/svg"><path d="m81.796875 14.996094h251.371094v114.917968h-251.371094zm0 0" fill="#00d7df"/><path d="m81.796875 378.445312h251.371094v114.917969h-251.371094zm0 0" fill="#a24bdb"/><path d="m81.796875 138.789062h251.371094v236.285157h-251.371094zm0 0" fill="#ff0059"/><path d="m207.480469 14.996094h125.6875v114.917968h-125.6875zm0 0" fill="#00aadf"/><path d="m207.480469 378.449219h125.6875v114.914062h-125.6875zm0 0" fill="#ac2ca5"/><path d="m207.480469 138.789062h125.6875v236.285157h-125.6875zm0 0" fill="#d20041"/><path d="m339.042969 489.597656v-44.984375l73.453125-.464843 2.46875-444.148438h-414.964844v511.851562h385.265625v-22.253906zm3.066406-459.605468h42.863281v30.035156h-42.863281zm0 60.023437h42.863281v29.996094h-42.863281zm0 59.988281h42.863281v29.992188h-42.863281zm0 59.984375h42.863281v29.996094h-42.863281zm0 59.988281h42.863281v29.996094h-42.863281zm0 59.984376h42.863281v29.996093h-42.863281zm0 59.988281h42.863281v29.996093h-42.863281zm-269.253906 91.914062h-42.863281v-31.929687h42.863281zm0-61.917969h-42.863281v-29.996093h42.863281zm0-59.988281h-42.863281v-29.996093h42.863281zm0-59.988281h-42.863281v-29.992188h42.863281zm0-59.984375h-42.863281v-29.996094h42.863281zm0-59.988281h-42.863281v-29.992188h42.863281zm0-59.984375h-42.863281v-29.996094h42.863281zm0-59.988281h-42.863281v-30.03125h42.863281zm239.261719 421.839843h-209.269532v-91.914062h209.269532zm0-121.90625h-209.269532v-209.953125h209.269532zm0-239.945312h-209.269532v-90.019531h209.269532zm0 0" fill="#444"/><path d="m414.964844 0h-207.484375v29.992188h104.636719v90.019531h-104.636719v29.992187h104.636719v209.953125h-104.636719v29.992188h104.636719v91.914062h-104.636719v29.988281h206.664062zm-72.855469 29.992188h42.863281v30.035156h-42.863281zm0 60.023437h42.863281v29.996094h-42.863281zm0 59.988281h42.863281v29.992188h-42.863281zm0 59.984375h42.863281v29.996094h-42.863281zm0 67.660157 42.863281.367187v21.953125h-42.863281zm0 52.3125h42.863281v29.996093h-42.863281zm0 59.988281h41.488281v29.996093h-41.488281zm41.488281 99.648437h-44.554687v-35.539062h44.554687zm0 0" fill="#292929"/><path d="m491.203125 57.132812c-11.160156-8.371093-24.914063-11.878906-38.722656-9.875-13.808594 2.003907-25.996094 9.273438-34.269531 20.398438l-244.105469 324.445312-12.707031 113.050782 97.851562-51.980469 242.554688-323.394531c16.992187-22.933594 12.234374-55.523438-10.601563-72.644532zm0 0" fill="#fdbf00"/><path d="m174.105469 392.101562-12.707031 113.050782 97.851562-51.976563zm0 0" fill="#fff587"/><path d="m491.203125 57.132812c-11.160156-8.371093-24.914063-11.878906-38.722656-9.875-13.808594 2.003907-25.996094 9.273438-34.269531 20.398438l-210.722657 280.078125v132.933594l51.761719-27.492188 242.554688-323.394531c16.992187-22.9375 12.234374-55.527344-10.601563-72.648438zm0 0" fill="#ff9100"/><path d="m207.488281 416.046875v64.621094l51.761719-27.492188zm0 0" fill="#fdbf00"/><path d="m491.210938 57.136719c-11.160157-8.367188-24.914063-11.875-38.722657-9.871094-13.808593 2-25.996093 9.269531-34.269531 20.398437l-18.519531 24.628907 83.996093 61.609375 18.121094-24.117188c16.988282-22.933594 12.230469-55.523437-10.605468-72.648437zm0 0" fill="#ff0059"/><path d="m491.210938 57.136719c-11.160157-8.367188-24.914063-11.875-38.722657-9.871094-13.808593 2-25.996093 9.269531-34.269531 20.398437l-18.519531 24.628907 83.996093 61.609375 18.121094-24.117188c16.988282-22.933594 12.230469-55.523437-10.605468-72.648437zm0 0" fill="#d20041"/><path d="m403.347656 87.394531-24.144531 32.113281 83.039063 63.105469 24.828124-32.992187zm0 0" fill="#444"/></svg>